<?xml version="1.0" standalone="no"?>
<!DOCTYPE svg PUBLIC "-//W3C//DTD SVG 20010904//EN"
 "http://www.w3.org/TR/2001/REC-SVG-20010904/DTD/svg10.dtd">
<svg version="1.0" xmlns="http://www.w3.org/2000/svg"
 width="512.000000pt" height="512.000000pt" viewBox="0 0 512.000000 512.000000"
 preserveAspectRatio="xMidYMid meet">
<metadata>
Created by potrace 1.11, written by Peter Selinger 2001-2013
</metadata>
<g transform="translate(0.000000,512.000000) scale(0.100000,-0.100000)"
fill="#000000" stroke="none">
<path d="M4035 4708 c-11 -13 -43 -52 -70 -88 -28 -36 -53 -66 -57 -68 -5 -2
-8 -7 -8 -12 0 -4 -23 -43 -52 -87 -28 -43 -58 -89 -67 -103 -37 -55 -155
-310 -144 -310 3 0 1 -6 -5 -13 -6 -7 -22 -53 -37 -102 -14 -49 -27 -90 -28
-92 -2 -1 -19 2 -38 8 -19 5 -42 12 -52 14 -10 2 -27 7 -37 10 -23 7 -83 21
-170 40 -134 28 -348 48 -510 48 -268 0 -477 -32 -705 -108 -122 -40 -285
-109 -285 -120 0 -2 10 -1 23 4 24 10 61 22 64 22 2 0 22 7 45 15 68 24 211
56 307 70 25 3 57 8 71 11 46 9 414 11 490 2 41 -4 98 -11 125 -14 28 -3 75
-11 105 -17 30 -6 60 -11 65 -12 6 -1 16 -5 23 -9 6 -5 12 -6 12 -4 0 4 28 -1
95 -19 11 -3 31 -7 44 -10 13 -3 32 -9 43 -15 10 -5 18 -7 18 -5 0 13 266 -88
348 -131 24 -13 45 -23 47 -23 2 0 9 26 15 58 29 138 55 221 112 342 46 97
117 223 130 228 4 2 8 10 8 18 0 8 5 14 10 14 6 0 10 5 10 11 0 5 28 47 62 92
83 109 90 117 105 117 21 0 113 -59 160 -103 44 -41 116 -171 127 -227 2 -14
7 -36 10 -50 17 -77 24 -277 12 -352 -3 -18 -8 -49 -10 -68 -3 -19 -11 -65
-19 -101 -13 -61 -13 -70 5 -115 76 -196 183 -548 172 -565 -3 -5 -1 -9 3 -9
5 0 9 -8 10 -17 0 -10 6 -43 12 -73 17 -85 19 -95 25 -142 4 -23 9 -61 12 -83
7 -49 12 -389 7 -419 -4 -20 -9 -21 -181 -22 -97 0 -206 -4 -242 -8 -36 -4
-83 -9 -105 -11 -130 -13 -220 -23 -220 -25 0 0 -18 -3 -40 -5 -22 -2 -58 -6
-81 -9 -23 -4 -60 -8 -83 -11 -23 -2 -67 -9 -99 -14 -31 -6 -77 -13 -102 -16
-25 -4 -64 -11 -87 -16 -24 -5 -46 -9 -50 -8 -5 1 -10 0 -13 -1 -3 -1 -17 -4
-33 -6 -15 -3 -37 -9 -50 -14 -22 -10 78 -8 278 6 197 13 285 16 673 20 241 2
412 0 412 -5 0 -12 -29 -132 -37 -151 -3 -8 -8 -23 -9 -32 -6 -28 -66 -161
-81 -180 -11 -12 -21 -14 -44 -8 -16 5 -53 11 -82 15 -28 3 -68 8 -87 10 -19
2 -60 7 -90 11 -30 3 -71 7 -90 9 -19 2 -57 5 -85 9 -27 3 -84 8 -125 11 -41
3 -97 8 -125 10 -168 16 -505 25 -505 14 0 -5 10 -9 23 -10 12 0 31 -2 42 -4
47 -8 103 -17 200 -29 28 -4 75 -11 105 -16 30 -6 71 -12 90 -14 19 -3 49 -7
65 -10 17 -3 73 -12 125 -21 52 -8 106 -17 120 -20 14 -3 50 -9 80 -15 30 -6
66 -12 80 -15 14 -3 36 -7 50 -10 14 -3 36 -7 50 -11 14 -3 41 -9 60 -14 73
-16 73 -17 37 -67 -17 -25 -52 -67 -76 -94 -50 -57 -30 -55 -226 -15 -66 13
-136 27 -155 30 -19 3 -46 8 -60 11 -14 3 -41 8 -60 11 -19 3 -46 7 -60 10
-14 2 -43 6 -65 9 -22 3 -51 7 -65 10 -14 3 -45 7 -70 10 -25 3 -55 8 -68 11
-12 2 -48 7 -80 9 -31 3 -72 8 -89 10 -67 10 -30 -12 50 -29 45 -10 96 -22
112 -27 26 -7 140 -35 184 -44 29 -6 186 -47 201 -53 8 -3 22 -6 30 -8 14 -3
71 -18 228 -61 29 -8 50 -19 46 -24 -3 -5 -42 -37 -86 -70 -108 -80 -275 -173
-413 -229 -11 -4 -37 -15 -58 -25 -93 -41 -408 -130 -527 -150 -19 -3 -60 -10
-90 -17 -30 -6 -66 -12 -80 -13 -14 -1 -65 -8 -115 -14 -141 -18 -180 -20
-335 -20 -171 1 -322 9 -445 24 -103 12 -135 17 -175 25 -25 5 -58 11 -75 14
-112 16 -426 105 -449 127 -6 5 -16 9 -23 9 -11 0 -79 32 -193 91 -82 42 -291
203 -278 214 11 10 523 146 775 206 101 24 183 48 183 52 0 4 -15 6 -32 3 -18
-3 -55 -8 -83 -11 -27 -3 -61 -7 -75 -9 -14 -3 -47 -7 -75 -10 -27 -4 -61 -8
-75 -11 -23 -4 -74 -12 -125 -19 -31 -5 -218 -38 -240 -42 -41 -9 -121 -25
-150 -30 -16 -3 -48 -10 -70 -15 -22 -6 -52 -13 -68 -15 -15 -2 -31 -5 -35 -8
-4 -3 -13 -1 -20 3 -19 12 -131 186 -124 193 9 8 356 84 429 93 12 2 36 6 53
10 17 4 41 8 53 10 12 2 130 20 262 40 132 20 256 39 275 41 75 8 120 17 120
24 0 9 -354 -1 -495 -15 -22 -2 -83 -6 -135 -10 -52 -4 -108 -8 -125 -11 -16
-2 -55 -6 -85 -9 -30 -3 -68 -8 -85 -10 -16 -2 -57 -7 -90 -10 -33 -4 -71 -8
-85 -10 -14 -2 -43 -6 -65 -10 -23 -3 -51 -7 -63 -10 -27 -5 -41 26 -73 149
-22 84 -24 96 -35 184 l-6 53 403 -5 c379 -4 537 -9 669 -20 145 -12 294 -16
280 -8 -8 6 -33 12 -55 15 -95 14 -160 25 -160 27 0 1 -11 3 -25 4 -14 2 -43
6 -65 10 -45 9 -86 15 -130 20 -16 2 -52 7 -80 11 -138 18 -254 31 -355 40
-19 1 -75 7 -125 11 -49 5 -151 9 -225 9 -74 0 -137 3 -140 7 -15 19 3 336 25
458 3 14 8 43 11 65 7 52 34 176 41 195 4 8 5 18 5 23 -6 25 101 356 164 510
l46 112 -16 45 c-56 160 -57 354 -2 537 44 147 111 284 204 419 53 76 54 76
90 69 131 -24 342 -252 563 -607 43 -70 79 -132 79 -138 0 -5 4 -10 9 -10 5 0
13 -9 16 -21 4 -11 9 -19 11 -16 9 9 -137 309 -214 440 -26 43 -51 86 -57 96
-45 77 -146 203 -213 265 -141 131 -284 143 -360 31 -12 -17 -30 -40 -40 -51
-26 -27 -106 -143 -129 -184 -83 -150 -140 -287 -158 -381 -30 -150 -35 -286
-15 -412 12 -75 12 -75 -20 -143 -55 -117 -173 -428 -186 -489 -2 -11 -13 -51
-24 -90 -12 -38 -23 -79 -25 -90 -2 -11 -12 -64 -24 -117 -11 -53 -23 -118
-26 -145 -4 -26 -8 -55 -10 -63 -6 -24 -18 -187 -19 -279 -1 -65 -5 -86 -16
-89 -34 -10 -120 -55 -120 -63 0 -5 31 -6 68 -3 l69 6 6 -68 c9 -91 14 -134
21 -164 3 -14 7 -36 10 -50 3 -14 15 -64 27 -112 13 -48 21 -89 18 -90 -2 -2
-34 -18 -70 -36 -37 -18 -84 -49 -105 -68 -46 -41 -47 -41 110 -1 55 15 101
25 101 24 1 -1 29 -55 63 -119 l61 -118 -74 -34 c-132 -61 -284 -173 -269
-198 3 -5 11 -5 17 0 16 12 166 66 242 87 33 9 67 19 75 22 8 3 20 7 25 8 6 2
22 6 36 10 21 5 29 1 42 -18 32 -49 185 -194 280 -265 52 -40 97 -72 100 -72
3 0 34 -17 68 -38 156 -94 371 -179 595 -236 54 -14 110 -27 124 -29 14 -3 54
-11 90 -17 36 -7 74 -14 85 -15 11 -2 55 -8 98 -15 247 -37 701 -45 887 -16
36 6 119 17 160 22 19 2 59 9 87 15 29 6 63 11 76 13 12 1 27 5 32 8 6 3 26 8
45 12 60 11 73 14 140 31 159 41 540 180 560 204 3 3 22 14 43 23 48 23 234
134 269 162 14 12 41 32 59 46 46 34 178 151 212 188 l28 29 52 -14 c29 -8 59
-17 67 -21 8 -3 20 -7 25 -7 6 -1 17 -5 25 -8 8 -3 44 -14 80 -25 36 -11 89
-29 119 -41 62 -25 80 -24 54 4 -43 48 -135 110 -235 159 l-106 53 27 34 c15
19 30 39 32 44 12 31 92 145 102 145 13 0 136 -29 157 -37 8 -3 26 -8 40 -10
23 -3 22 -1 -13 31 -20 18 -65 48 -98 66 -47 25 -59 36 -54 48 4 10 18 46 31
82 14 36 29 74 33 85 12 27 37 125 51 200 20 112 17 106 50 100 38 -7 39 10 1
29 -26 14 -28 19 -24 58 13 123 5 380 -18 528 -16 103 -19 121 -34 188 -8 34
-17 74 -20 90 -4 23 -17 71 -40 152 -2 8 -9 31 -14 50 -5 19 -27 87 -50 150
-23 63 -44 122 -46 130 -2 8 -17 47 -33 87 -17 39 -29 73 -27 75 17 17 26 352
13 473 -7 64 -41 203 -57 232 -5 10 -9 21 -10 26 -2 19 -35 86 -64 132 -105
165 -264 272 -458 310 -84 17 -84 17 -104 -7z"/>
<path d="M2334 2136 c-52 -23 -57 -63 -18 -146 31 -67 108 -169 203 -270 l71
-75 63 65 c142 146 223 269 234 352 5 31 1 41 -21 61 l-27 25 -237 1 c-177 0
-245 -3 -268 -13z"/>
</g>
</svg>
